<svg width="48" height="48" viewBox="0 0 48 48" fill="none" xmlns="http://www.w3.org/2000/svg">
<path d="M36.75 0H11.25C5.0368 0 0 5.0368 0 11.25V36.75C0 42.9632 5.0368 48 11.25 48H36.75C42.9632 48 48 42.9632 48 36.75V11.25C48 5.0368 42.9632 0 36.75 0Z" fill="#242938"/>
<path d="M30.1974 5.95197C30.5122 6.33742 30.6727 6.85764 30.9924 7.89679L38 30.6138C35.368 29.2657 32.5429 28.3218 29.6224 27.8148L25.0605 12.5992C25.0244 12.4775 24.9494 12.3707 24.8466 12.2948C24.7438 12.2188 24.6189 12.1779 24.4905 12.178C24.3621 12.1781 24.2372 12.2194 24.1346 12.2956C24.032 12.3718 23.9572 12.4787 23.9214 12.6004L19.4142 27.8071C16.4809 28.312 13.6432 29.2574 11 30.6103L18.0406 7.892C18.3629 6.85413 18.5234 6.33487 18.8379 5.94942C19.1159 5.61013 19.4771 5.34654 19.8873 5.18362C20.351 5 20.9021 5 22.0019 5H27.0314C28.1323 5 28.6833 5 29.1486 5.1849C29.5591 5.34778 29.92 5.6119 30.1974 5.95197Z" fill="url(#paint0_linear_8_34)"/>
<path d="M31.333 31.6942C30.1929 32.6698 27.9173 33.3347 25.2964 33.3347C22.0806 33.3347 19.3837 32.3329 18.6687 30.9856C18.4132 31.7578 18.3557 32.6411 18.3557 33.2063C18.3557 33.2063 18.1874 35.9767 20.1147 37.9039C20.1147 37.6661 20.1615 37.4305 20.2526 37.2108C20.3436 36.9911 20.477 36.7914 20.6452 36.6232C20.8134 36.4551 21.0131 36.3217 21.2329 36.2307C21.4526 36.1397 21.6882 36.0929 21.926 36.0929C23.6409 36.0929 23.6399 37.5884 23.6387 38.8035V38.9108C23.6387 40.7544 24.765 42.3339 26.3668 43.0001C26.12 42.4929 25.992 41.9361 25.9926 41.372C25.9926 39.6131 27.0241 38.9594 28.2242 38.1984C29.1787 37.5935 30.2389 36.921 30.9686 35.5727C31.3625 34.8462 31.5683 34.0327 31.5674 33.2063C31.5679 32.6932 31.4888 32.1831 31.333 31.6942Z" fill="#FF5D01"/>
<defs>
<linearGradient id="paint0_linear_8_34" x1="32.3964" y1="3.7952" x2="24.6894" y2="30.668" gradientUnits="userSpaceOnUse">
<stop stop-color="white"/>
<stop offset="1" stop-color="white"/>
</linearGradient>
</defs>
</svg>
