<svg width="48" height="48" viewBox="0 0 48 48" fill="none" xmlns="http://www.w3.org/2000/svg">
<g clip-path="url(#clip0_8_16)">
<path d="M36.75 0H11.25C5.0368 0 0 5.0368 0 11.25V36.75C0 42.9632 5.0368 48 11.25 48H36.75C42.9632 48 48 42.9632 48 36.75V11.25C48 5.0368 42.9632 0 36.75 0Z" fill="#242938"/>
<path d="M10.638 42.0011C9.98751 42.0011 9.79833 41.6215 9.79833 41.0526C9.79833 40.863 9.82217 40.6491 9.85143 40.4238C9.99384 39.4399 10.3417 38.8771 11.1814 38.8771C11.7492 38.8771 12.0262 39.1317 12.0262 39.5942V39.8195H12.5895C12.5958 39.8195 12.5958 39.612 12.5958 39.5649C12.5958 38.8892 12.1876 38.2483 11.1823 38.2483C9.81613 38.2483 9.25434 38.9923 9.04737 40.4507C9.0178 40.6464 9 40.8291 9 41.0242C9 41.8837 9.33732 42.6656 10.5436 42.6656C11.4602 42.6656 12.0045 42.2177 12.3237 41.6663L11.7854 41.303C11.4366 41.8544 11.058 42.0011 10.638 42.0011ZM14.3343 39.286C13.24 39.286 12.7672 39.8489 12.6076 40.9691C12.5895 41.1001 12.5777 41.2362 12.5777 41.3605C12.5777 42.0837 12.9147 42.6589 13.8488 42.6589C14.9431 42.6589 15.4223 42.0719 15.5819 40.9691C15.5997 40.827 15.6114 40.6966 15.6114 40.5663C15.6117 39.8313 15.263 39.286 14.3343 39.286ZM14.7896 40.9694C14.6713 41.7818 14.4173 42.0307 13.9378 42.0307C13.5538 42.0307 13.3646 41.8707 13.3646 41.3905C13.3646 41.2719 13.3767 41.1297 13.4002 40.9694C13.5185 40.1634 13.755 39.9145 14.2399 39.9145C14.6303 39.9145 14.8252 40.0745 14.8252 40.5605C14.8252 40.6791 14.8131 40.8155 14.7896 40.9694ZM18.3622 38.3073L18.179 39.3955C18.1673 39.4901 18.1733 39.4587 18.2089 39.5476C18.0375 39.4173 17.7298 39.3311 17.5228 39.3311C16.541 39.3311 15.9913 39.7766 15.8139 41.0215C15.7904 41.1697 15.7843 41.2946 15.7843 41.4189C15.7843 42.3262 16.3165 42.6644 17.0319 42.6644C17.3339 42.6644 17.6293 42.6707 17.8598 42.4753L17.9186 42.844H18.4865L19.1487 38.3073H18.3622ZM17.8004 41.8586C17.5346 42.0183 17.2745 42.0543 17.1149 42.0543C16.6831 42.0543 16.5649 41.829 16.5649 41.4676C16.5649 41.3312 16.5827 41.1715 16.6065 40.9991C16.7423 40.0566 17.044 39.8903 17.4344 39.8903C17.6884 39.8903 17.8833 39.932 18.0671 40.033L17.8004 41.8586ZM20.8757 39.286C19.7932 39.286 19.2851 39.8014 19.1134 40.9691C19.0953 41.1116 19.0836 41.248 19.0836 41.3784C19.0836 42.1786 19.4918 42.6589 20.3903 42.6589C21.0881 42.6589 21.6089 42.3683 21.8868 41.8348L21.2894 41.5916C21.118 41.8523 20.8875 42.0301 20.4793 42.0301C20.0418 42.0301 19.8644 41.9122 19.8644 41.5208C19.8644 41.4437 19.8704 41.3315 19.8822 41.3315H22.0168C22.0467 41.029 22.0817 40.8152 22.0817 40.638C22.0817 40.0454 21.8572 39.286 20.8757 39.286ZM21.2836 40.7269H19.9827C20.113 40.4244 20.3314 39.9562 20.781 39.9562C21.1298 39.9562 21.3014 40.1607 21.3014 40.5103C21.3011 40.5696 21.2957 40.7269 21.2836 40.7269ZM24.3575 39.2146L24.4284 38.6097H22.7605L22.6899 39.2146H23.1274L22.6546 42.2391H22.2165L22.1459 42.844H23.8135L23.8847 42.2391H23.4469L23.9197 39.2146H24.3575ZM27.7463 40.122L27.9594 39.5171H27.3858L26.9721 39.6027C26.7413 39.4548 26.4279 39.3438 26.1325 39.3438C25.2865 39.3438 24.5654 39.7533 24.5654 40.6842C24.5654 40.9452 24.6598 41.1561 24.7721 41.2985C24.595 41.3932 24.4411 41.5517 24.4411 41.7655C24.4411 41.8602 24.4764 41.9572 24.5476 42.0459C24.1925 42.2597 23.9743 42.6139 23.9743 43.0285C23.9743 43.8291 24.808 44 25.4467 44C26.2508 44 27.209 43.8158 27.209 42.7902C27.209 42.4406 26.9903 42.1674 26.3576 42.0489L25.2162 41.8351C25.0861 41.8112 25.0566 41.7697 25.0566 41.7104C25.0566 41.6215 25.1103 41.5743 25.1987 41.5743L25.2756 41.5861C25.4295 41.6215 25.6069 41.6397 25.79 41.6397C26.6122 41.6397 27.3454 41.2837 27.3454 40.3591C27.3454 40.2284 27.3218 40.1401 27.2627 39.9977C27.3632 40.0451 27.4935 40.1223 27.5463 40.1223H27.7463V40.122ZM26.1204 42.5758C26.3449 42.6175 26.4215 42.7004 26.4215 42.8486C26.4215 43.3289 25.9071 43.3881 25.5348 43.3881C24.967 43.3881 24.7543 43.252 24.7543 42.9493C24.7543 42.6825 24.8309 42.5582 25.0086 42.3683L26.1204 42.5758ZM25.8775 41.023C25.5345 41.023 25.3453 40.8987 25.3453 40.602C25.3453 40.1634 25.5997 39.9084 26.0432 39.9084C26.398 39.9084 26.5697 40.0566 26.5697 40.3467C26.5697 40.7855 26.3211 41.023 25.8775 41.023ZM29.8472 39.286C29.5159 39.286 29.2205 39.449 28.8536 39.7391L28.8005 39.5171H28.1497L27.6944 42.844H28.481L28.8241 40.321C29.0549 40.1788 29.3385 39.9723 29.5811 39.9723C29.8764 39.9723 29.9832 40.1153 29.9832 40.3878C29.9832 40.4532 29.9769 40.6464 29.9651 40.7175L29.6758 42.844H30.4624L30.7517 40.7003C30.7638 40.5998 30.7755 40.4347 30.7755 40.34C30.7758 39.7763 30.5094 39.286 29.8472 39.286ZM32.2696 42.0105L32.2757 41.9291L32.6184 39.5171H31.3114L31.229 40.122H31.8023C31.7549 40.122 31.7253 40.1749 31.7196 40.2227L31.4831 41.829C31.4713 41.9064 31.4656 42.0673 31.4656 42.1321C31.4656 42.547 31.69 42.844 32.1511 42.844H32.5532L32.6419 42.2391H32.3879C32.2989 42.2391 32.2696 42.0816 32.2696 42.0105ZM32.778 38.3073H32.0092C31.9619 38.3073 31.9619 38.1327 31.9561 38.192L31.8493 39.0443C31.8433 39.0979 31.8433 39.2146 31.8907 39.2146H32.6597C32.7071 39.2146 32.7071 39.0074 32.7128 38.9536L32.8197 38.2958C32.8257 38.2365 32.8257 38.3073 32.778 38.3073ZM34.3819 42.0307C34.187 42.0307 34.0923 41.9476 34.0923 41.77L34.0983 41.7579L34.3466 40.122H35.2454L35.5173 39.5171H34.4293L34.6124 38.186L33.7848 38.4512L33.6367 39.5171H33.1579L33.0752 40.122H33.631C33.5779 40.4244 33.5245 40.2281 33.5187 40.2877L33.3057 41.7222C33.2939 41.7876 33.2939 41.8351 33.2939 41.894C33.2939 42.4572 33.7079 42.668 34.2051 42.668C34.6661 42.668 35.0388 42.5331 35.3287 42.2896L34.9618 41.8372C34.7781 41.9497 34.6541 42.0307 34.3819 42.0307ZM37.2678 39.286C36.1856 39.286 35.6772 39.8014 35.5055 40.9691C35.4877 41.1116 35.4759 41.248 35.4759 41.3784C35.4759 42.1786 35.8839 42.6589 36.7827 42.6589C37.4805 42.6589 38.0013 42.3683 38.2788 41.8348L37.6818 41.5916C37.5104 41.8523 37.2796 42.0301 36.8714 42.0301C36.4342 42.0301 36.2565 41.9122 36.2565 41.5208C36.2565 41.4437 36.2628 41.3315 36.2746 41.3315H38.4092C38.4388 41.029 38.4744 40.8152 38.4744 40.638C38.4744 40.0454 38.2496 39.286 37.2678 39.286ZM37.676 40.7269H36.375C36.5051 40.4244 36.7235 39.9562 37.1734 39.9562C37.5222 39.9562 37.6938 40.1607 37.6938 40.5103C37.6935 40.5696 37.6878 40.7269 37.676 40.7269ZM40.6506 39.286C40.3667 39.286 40.1006 39.449 39.8345 39.7034L39.7871 39.5171H39.1369L38.6813 42.844H39.4739L39.8227 40.2677C40.0297 40.1434 40.2662 40.0373 40.491 40.0373C40.6331 40.0373 40.7689 40.0146 40.8989 40.0324L41 39.345C40.8811 39.3214 40.7629 39.286 40.6506 39.286ZM20.5677 35.9242C18.7776 35.1488 17.1025 33.1774 17.0986 31.1603C17.0938 28.9612 18.4841 27.0942 20.2132 25.8671C20.0053 26.6544 19.8918 27.3745 20.4069 28.0787C20.8857 28.7335 21.7241 29.0516 22.5158 28.8789C24.3659 28.473 24.4507 26.4342 23.354 25.2465C22.2696 24.0703 21.2206 22.7416 21.6333 21.0358C21.84 20.1807 22.3638 19.3798 23.0272 18.8073C22.5174 20.1508 23.9665 21.4758 24.9214 22.1358C26.5778 23.2809 28.395 24.1462 29.9181 25.4885C31.5202 26.8991 32.7032 28.8067 32.4642 31.0188C32.2054 33.4166 30.3046 35.0843 28.1727 35.9264C32.6778 34.9295 37.333 31.4244 37.4283 26.4155C37.5074 22.2949 34.6876 19.1237 31.1943 17.3081L31.0118 17.2082C31.1077 17.4414 31.1391 17.6398 31.1355 17.8174C31.1669 17.6864 31.188 17.5518 31.194 17.413C31.1925 17.5857 31.1705 17.7487 31.1301 17.9018L31.1355 17.8174C31.083 18.0397 30.9949 18.2463 30.8769 18.4353L30.9282 18.3799C30.2313 19.5386 28.3446 19.7903 27.4126 18.5904C25.9143 16.6605 27.444 14.5796 27.6579 12.536C27.9259 9.97451 26.3235 7.48806 24.3367 6C25.431 7.77448 23.9894 10.1221 22.836 11.4344C21.7175 12.7069 20.3574 13.7691 19.1228 14.925C17.7964 16.1666 16.5214 17.4744 15.4313 18.9316C13.2511 21.8482 11.9164 25.5163 12.8972 29.1551C13.8775 32.7912 17.0195 35.1058 20.5677 35.9242Z" fill="#EE4323"/>
</g>
<defs>
<clipPath id="clip0_8_16">
<rect width="48" height="48" fill="white"/>
</clipPath>
</defs>
</svg>
