<svg width="48" height="48" viewBox="0 0 256 256" fill="none" xmlns="http://www.w3.org/2000/svg">
<g clip-path="url(#clip0_7_6)">
<path d="M196 -1H60C26.8629 -1 0 25.8629 0 59V195C0 228.137 26.8629 255 60 255H196C229.137 255 256 228.137 256 195V59C256 25.8629 229.137 -1 196 -1Z" fill="#242938"/>
<path d="M123.925 107.353C125.363 105.259 126.93 104.994 128.201 104.994C129.473 104.994 131.584 105.259 133.022 107.353C144.299 122.701 162.916 153.283 176.653 175.851C185.614 190.556 192.493 201.858 193.908 203.295C199.206 208.693 206.472 205.329 210.695 199.205C214.85 193.179 216 188.945 216 184.432C216 181.355 155.772 70.3677 149.71 61.1289C143.882 52.2454 141.975 50 132 50H124.523C114.571 50 113.133 52.2454 107.298 61.1289C101.235 70.3677 41 181.354 41 184.424C41 188.945 42.1579 193.179 46.3205 199.205C50.5435 205.329 57.809 208.693 63.1068 203.287C64.5145 201.851 71.394 190.556 80.3548 175.843C94.0911 153.283 112.648 122.701 123.933 107.346L123.925 107.353Z" fill="white"/>
</g>
<defs>
<clipPath id="clip0_7_6">
<rect width="256" height="256" fill="white"/>
</clipPath>
</defs>
</svg>
