<svg width="48" height="48" viewBox="0 0 48 48" fill="none" xmlns="http://www.w3.org/2000/svg">
<path d="M36.75 0H11.25C5.0368 0 0 5.0368 0 11.25V36.75C0 42.9632 5.0368 48 11.25 48H36.75C42.9632 48 48 42.9632 48 36.75V11.25C48 5.0368 42.9632 0 36.75 0Z" fill="#242938"/>
<g clip-path="url(#clip0_66_2)">
<path d="M37.0885 10.5205C33.629 5.60313 26.7966 4.14559 21.8564 7.27153L13.1803 12.7633C12.0082 13.4956 11.0029 14.4627 10.2286 15.6028C9.4543 16.743 8.92804 18.031 8.68346 19.3846C8.26959 21.6646 8.63336 24.0167 9.71718 26.0683C8.97452 27.1871 8.46799 28.4439 8.22821 29.7626C7.98105 31.1435 8.01401 32.5595 8.32516 33.9275C8.63631 35.2956 9.21939 36.5882 10.0402 37.7294C13.5004 42.6473 20.3328 44.1042 25.2722 40.9784L33.9484 35.4867C35.1205 34.7545 36.1259 33.7874 36.9002 32.6472C37.6745 31.5071 38.2007 30.219 38.4452 28.8654C38.859 26.5853 38.4955 24.2334 37.4123 22.1815C38.1547 21.0627 38.661 19.806 38.9006 18.4873C39.1479 17.1065 39.115 15.6904 38.8039 14.3224C38.4927 12.9543 37.9094 11.6617 37.0885 10.5205Z" fill="#FF3E00"/>
<path d="M20.9265 38.4015C19.5171 38.7593 18.0293 38.6862 16.6638 38.192C15.2984 37.6977 14.1212 36.8063 13.2912 35.6379C12.7816 34.9414 12.4195 34.1525 12.2263 33.3176C12.0331 32.4826 12.0127 31.6184 12.1661 30.7756C12.2181 30.4989 12.2896 30.2261 12.3801 29.959L12.5488 29.4568L13.0076 29.7859C14.0673 30.5461 15.2521 31.1242 16.5109 31.495L16.8438 31.5936L16.8131 31.918C16.7724 32.3795 16.9004 32.8401 17.1743 33.2183C17.4241 33.5702 17.7785 33.8388 18.1896 33.9878C18.6007 34.1368 19.0487 34.159 19.4732 34.0514C19.6678 34.0006 19.8533 33.921 20.0233 33.8153L28.9793 28.2425C29.1984 28.1077 29.3864 27.9299 29.5313 27.7203C29.6761 27.5107 29.7747 27.274 29.8207 27.0251C29.8666 26.7711 29.8603 26.5107 29.8021 26.259C29.7439 26.0074 29.635 25.7696 29.4816 25.5596C29.2317 25.2075 28.8772 24.9389 28.4659 24.7898C28.0547 24.6407 27.6065 24.6184 27.1819 24.7259C26.9875 24.7767 26.8022 24.8563 26.6325 24.9618L23.215 27.0891C22.653 27.438 22.0397 27.701 21.3964 27.8689C19.987 28.2267 18.4992 28.1536 17.1338 27.6594C15.7684 27.1652 14.5912 26.2737 13.7612 25.1054C13.2515 24.4089 12.8895 23.62 12.6963 22.785C12.5031 21.9501 12.4826 21.0859 12.6361 20.2431C12.7879 19.417 13.1146 18.631 13.5953 17.9352C14.0759 17.2395 14.7 16.6494 15.4276 16.2026L24.3828 10.6293C24.945 10.2798 25.5587 10.0165 26.2026 9.84851C27.6119 9.49072 29.0998 9.56386 30.4652 10.0581C31.8306 10.5523 33.0078 11.4437 33.8378 12.612C34.3474 13.3086 34.7094 14.0974 34.9026 14.9324C35.0958 15.7673 35.1163 16.6316 34.9628 17.4744C34.9107 17.751 34.8391 18.0239 34.7488 18.291L34.5802 18.7932L34.1216 18.4646C33.062 17.7039 31.8771 17.1256 30.618 16.7547L30.2852 16.6561L30.3158 16.3317C30.3562 15.8703 30.2282 15.4098 29.9546 15.0315C29.7049 14.6796 29.3505 14.411 28.9394 14.262C28.5283 14.113 28.0802 14.0908 27.6558 14.1983C27.4611 14.2491 27.2756 14.3287 27.1057 14.4344L18.1497 20.0075C17.9306 20.1421 17.7427 20.3199 17.5979 20.5294C17.4531 20.739 17.3547 20.9757 17.3089 21.2245C17.2627 21.4785 17.2688 21.739 17.3269 21.9907C17.385 22.2424 17.494 22.4802 17.6473 22.6902C17.8973 23.0423 18.2518 23.3109 18.663 23.46C19.0743 23.6091 19.5225 23.6314 19.9471 23.5239C20.1417 23.473 20.3272 23.3934 20.4972 23.2878L23.9142 21.1613C24.476 20.812 25.0892 20.5488 25.7326 20.3809C27.142 20.0231 28.6298 20.0962 29.9952 20.5904C31.3606 21.0846 32.5378 21.9761 33.3678 23.1444C33.8775 23.8409 34.2395 24.6298 34.4327 25.4648C34.6259 26.2997 34.6464 27.1639 34.4929 28.0067C34.341 28.8328 34.0143 29.6189 33.5336 30.3148C33.053 31.0106 32.4289 31.6009 31.7014 32.0478L22.7462 37.6207C22.1839 37.9702 21.5704 38.2335 20.9265 38.4015Z" fill="white"/>
</g>
<defs>
<clipPath id="clip0_66_2">
<rect width="32" height="38" fill="white" transform="translate(8 5)"/>
</clipPath>
</defs>
</svg>
